<?xml version="1.0" standalone="no"?>
<!DOCTYPE svg PUBLIC "-//W3C//DTD SVG 20010904//EN"
 "http://www.w3.org/TR/2001/REC-SVG-20010904/DTD/svg10.dtd">
<svg version="1.0" xmlns="http://www.w3.org/2000/svg"
 width="1920.000000pt" height="1920.000000pt" viewBox="0 0 1920.000000 1920.000000"
 preserveAspectRatio="xMidYMid meet">
<metadata>
Created by potrace 1.11, written by Peter Selinger 2001-2013
</metadata>
<g transform="translate(0.000000,1920.000000) scale(0.100000,-0.100000)"
fill="#000000" stroke="none">
<path d="M0 9600 l0 -9600 9600 0 9600 0 0 9600 0 9600 -9600 0 -9600 0 0
-9600z m6810 662 c0 -2095 -1 -2147 -36 -2322 -83 -411 -332 -738 -692 -911
-341 -164 -846 -214 -1282 -128 -651 130 -1033 567 -1109 1271 -6 54 -11 205
-11 338 l0 240 354 0 353 0 6 -247 c10 -450 70 -657 242 -829 95 -95 180 -143
323 -181 88 -24 114 -26 287 -27 259 0 388 31 537 130 147 98 237 250 291 494
21 95 21 100 24 2173 l3 2077 355 0 355 0 0 -2078z m4530 -597 l0 -2675 -320
0 -320 0 0 260 c0 143 -3 260 -8 260 -4 0 -18 -21 -32 -47 -34 -64 -125 -178
-186 -232 -67 -60 -199 -146 -287 -186 -311 -143 -750 -183 -1139 -104 -817
164 -1339 886 -1374 1899 -30 834 282 1528 841 1870 430 264 1056 314 1545
125 247 -95 457 -249 585 -430 l50 -70 3 1003 2 1002 320 0 320 0 0 -2675z
m3071 1275 c626 -61 983 -386 1083 -985 33 -193 36 -351 36 -1656 l0 -1309
-320 0 -320 0 0 1348 c0 806 -4 1374 -10 1413 -39 269 -196 478 -428 572 -117
48 -203 62 -372 61 -330 -3 -591 -99 -785 -289 -156 -152 -248 -328 -308 -590
-21 -88 -21 -115 -24 -1302 l-4 -1213 -319 0 -320 0 0 1935 0 1935 300 0 300
0 0 -305 c0 -175 4 -305 9 -305 5 0 21 21 36 48 45 77 134 192 206 264 298
298 725 428 1240 378z"/>
<path d="M9349 10380 c-166 -21 -357 -90 -474 -170 -249 -171 -423 -484 -495
-890 -31 -173 -39 -534 -16 -700 49 -346 168 -617 364 -822 164 -172 361 -276
602 -319 115 -21 355 -16 470 8 501 107 822 512 905 1141 19 147 19 447 0 594
-75 570 -357 966 -786 1102 -163 52 -411 77 -570 56z"/>
</g>
</svg>
